<mxfile host="app.diagrams.net" modified="2021-04-05T10:11:32.058Z" agent="5.0 (Windows NT 10.0; WOW64) AppleWebKit/537.36 (KHTML, like Gecko) Chrome/78.0.3904.108 Safari/537.36" etag="Uj4CwAzmGIEEjpzq7qjI" version="14.5.3" type="github">
  <diagram id="Apu4NWYd2kTusmbhQi0U" name="Page-1">
    <mxGraphModel dx="2249" dy="734" grid="1" gridSize="10" guides="1" tooltips="1" connect="1" arrows="1" fold="1" page="1" pageScale="1" pageWidth="827" pageHeight="1169" math="0" shadow="0">
      <root>
        <mxCell id="0" />
        <mxCell id="1" parent="0" />
        <mxCell id="50E75bxeyg_KqdB3qLli-13" style="edgeStyle=none;rounded=0;orthogonalLoop=1;jettySize=auto;html=1;exitX=1;exitY=0.5;exitDx=0;exitDy=0;entryX=0;entryY=0.5;entryDx=0;entryDy=0;" edge="1" parent="1" source="50E75bxeyg_KqdB3qLli-3" target="50E75bxeyg_KqdB3qLli-12">
          <mxGeometry relative="1" as="geometry" />
        </mxCell>
        <mxCell id="50E75bxeyg_KqdB3qLli-3" value="京东网站&lt;br&gt;从多个服务器上获取不同的图片&lt;br&gt;&lt;br&gt;https://www.jd.com/&lt;br&gt;HTML&lt;br&gt;&lt;br&gt;&amp;lt;img src=&quot;https://img13.360buyimg.com/&quot;&amp;gt;&lt;br&gt;&amp;lt;img src=&quot;http://imgcps.jd.com/&quot;&amp;gt;" style="rounded=0;whiteSpace=wrap;html=1;align=left;" vertex="1" parent="1">
          <mxGeometry x="-200" y="200" width="270" height="190" as="geometry" />
        </mxCell>
        <mxCell id="50E75bxeyg_KqdB3qLli-4" value="&lt;span style=&quot;text-align: left&quot;&gt;https://img13.360buyimg.com&lt;/span&gt;" style="rounded=0;whiteSpace=wrap;html=1;" vertex="1" parent="1">
          <mxGeometry x="460" y="220" width="180" height="60" as="geometry" />
        </mxCell>
        <mxCell id="50E75bxeyg_KqdB3qLli-5" value="&lt;span style=&quot;text-align: left&quot;&gt;http://imgcps.jd.com&lt;/span&gt;" style="rounded=0;whiteSpace=wrap;html=1;" vertex="1" parent="1">
          <mxGeometry x="460" y="320" width="180" height="60" as="geometry" />
        </mxCell>
        <mxCell id="50E75bxeyg_KqdB3qLli-6" value="放图片的服务器" style="rounded=0;whiteSpace=wrap;html=1;" vertex="1" parent="1">
          <mxGeometry x="790" y="450" width="120" height="60" as="geometry" />
        </mxCell>
        <mxCell id="50E75bxeyg_KqdB3qLli-8" style="edgeStyle=orthogonalEdgeStyle;rounded=0;orthogonalLoop=1;jettySize=auto;html=1;exitX=0.5;exitY=1;exitDx=0;exitDy=0;" edge="1" parent="1" source="50E75bxeyg_KqdB3qLli-7" target="50E75bxeyg_KqdB3qLli-6">
          <mxGeometry relative="1" as="geometry" />
        </mxCell>
        <mxCell id="50E75bxeyg_KqdB3qLli-9" value="&lt;span style=&quot;font-size: 12px ; background-color: rgb(248 , 249 , 250)&quot;&gt;拉取图片&lt;/span&gt;&lt;br style=&quot;font-size: 12px ; background-color: rgb(248 , 249 , 250)&quot;&gt;&lt;span style=&quot;font-size: 12px ; background-color: rgb(248 , 249 , 250)&quot;&gt;根据规则分发&lt;/span&gt;" style="edgeLabel;html=1;align=center;verticalAlign=middle;resizable=0;points=[];" vertex="1" connectable="0" parent="50E75bxeyg_KqdB3qLli-8">
          <mxGeometry x="-0.2333" y="-2" relative="1" as="geometry">
            <mxPoint as="offset" />
          </mxGeometry>
        </mxCell>
        <mxCell id="50E75bxeyg_KqdB3qLli-10" style="rounded=0;orthogonalLoop=1;jettySize=auto;html=1;exitX=0;exitY=0.5;exitDx=0;exitDy=0;entryX=1;entryY=0.5;entryDx=0;entryDy=0;" edge="1" parent="1" source="50E75bxeyg_KqdB3qLli-7" target="50E75bxeyg_KqdB3qLli-4">
          <mxGeometry relative="1" as="geometry" />
        </mxCell>
        <mxCell id="50E75bxeyg_KqdB3qLli-11" style="edgeStyle=none;rounded=0;orthogonalLoop=1;jettySize=auto;html=1;exitX=0;exitY=0.5;exitDx=0;exitDy=0;entryX=1;entryY=0.5;entryDx=0;entryDy=0;" edge="1" parent="1" source="50E75bxeyg_KqdB3qLli-7" target="50E75bxeyg_KqdB3qLli-5">
          <mxGeometry relative="1" as="geometry" />
        </mxCell>
        <mxCell id="50E75bxeyg_KqdB3qLli-7" value="DNS" style="rounded=0;whiteSpace=wrap;html=1;" vertex="1" parent="1">
          <mxGeometry x="790" y="210" width="120" height="60" as="geometry" />
        </mxCell>
        <mxCell id="50E75bxeyg_KqdB3qLli-14" style="edgeStyle=none;rounded=0;orthogonalLoop=1;jettySize=auto;html=1;exitX=1;exitY=0.5;exitDx=0;exitDy=0;entryX=0;entryY=0.5;entryDx=0;entryDy=0;" edge="1" parent="1" source="50E75bxeyg_KqdB3qLli-12" target="50E75bxeyg_KqdB3qLli-4">
          <mxGeometry relative="1" as="geometry" />
        </mxCell>
        <mxCell id="50E75bxeyg_KqdB3qLli-15" style="edgeStyle=none;rounded=0;orthogonalLoop=1;jettySize=auto;html=1;exitX=1;exitY=0.5;exitDx=0;exitDy=0;entryX=0;entryY=0.5;entryDx=0;entryDy=0;" edge="1" parent="1" source="50E75bxeyg_KqdB3qLli-12" target="50E75bxeyg_KqdB3qLli-5">
          <mxGeometry relative="1" as="geometry" />
        </mxCell>
        <mxCell id="50E75bxeyg_KqdB3qLli-12" value="DNS 域名解析&lt;br&gt;不同地域的 DNS&lt;br&gt;可以解析为不同地方的服务器&lt;br&gt;对应的 IP" style="ellipse;whiteSpace=wrap;html=1;aspect=fixed;" vertex="1" parent="1">
          <mxGeometry x="180" y="200" width="175" height="175" as="geometry" />
        </mxCell>
      </root>
    </mxGraphModel>
  </diagram>
</mxfile>
